<?xml version="1.0" encoding="utf-8"?><svg viewBox="0 0 100 69" xmlns="http://www.w3.org/2000/svg" xmlns:xlink="http://www.w3.org/1999/xlink"><style>:root>svg{display:none}:root>svg:target{display:block}</style><svg viewBox="0 0 9 16" id="arrow-left" xmlns="http://www.w3.org/2000/svg"><path d="M.293 7.293a1 1 0 000 1.414l6.364 6.364a1 1 0 001.414-1.414L2.414 8l5.657-5.657A1 1 0 006.657.93L.293 7.293zM2 7H1v2h1V7z"/></svg><svg viewBox="0 0 9 16" id="arrow-left-green" xmlns="http://www.w3.org/2000/svg"><path d="M.293 7.293a1 1 0 000 1.414l6.364 6.364a1 1 0 001.414-1.414L2.414 8l5.657-5.657A1 1 0 006.657.93L.293 7.293zM2 7H1v2h1V7z"/></svg><svg viewBox="0 0 6 10" id="arrow-right" xmlns="http://www.w3.org/2000/svg"><path d="M5.46 5.46a.65.65 0 000-.92L1.323.404a.65.65 0 10-.92.919L4.082 5 .404 8.677a.65.65 0 10.919.92L5.46 5.46zM4 5.65h1v-1.3H4v1.3z"/></svg><svg viewBox="0 0 9 16" id="arrow-right-green" xmlns="http://www.w3.org/2000/svg"><path d="M8.707 8.707a1 1 0 000-1.414L2.343.929A1 1 0 00.93 2.343L6.586 8 .929 13.657a1 1 0 101.414 1.414l6.364-6.364zM7 9h1V7H7v2z"/></svg><svg viewBox="0 0 38 55" id="bottle" xmlns="http://www.w3.org/2000/svg"><path d="M9.492 19.928a.61.61 0 00.355-.787l-.072-.19a.61.61 0 00-1.141.432l.072.19a.61.61 0 00.786.355zM13.74 31.149a.61.61 0 00.354-.787l-3.312-8.748a.61.61 0 10-1.14.432l3.31 8.748a.61.61 0 00.787.355z"/><path d="M21.282 53.95l13.313-5.04a2.647 2.647 0 001.536-3.408L23.462 12.031a4.276 4.276 0 00-5.313-2.55l-.65-1.716.38-.144a.61.61 0 00.355-.786l-1.152-3.043a2.647 2.647 0 00-3.408-1.536L6.067 5.135a2.647 2.647 0 00-1.536 3.408l1.151 3.043a.61.61 0 00.787.354l.38-.144.65 1.717a4.275 4.275 0 00-2.294 5.428l12.67 33.472a2.647 2.647 0 003.407 1.536zM5.672 8.11a1.425 1.425 0 01.827-1.835l7.607-2.88a1.425 1.425 0 011.835.828l.936 2.472-10.27 3.887-.935-2.472zm10.686.086l.648 1.712-8.368 3.167-.648-1.712 8.368-3.167zM6.346 18.51a3.054 3.054 0 011.773-3.933l10.27-3.887a3.054 3.054 0 013.932 1.773l3.22 8.508-8.404 3.181a.61.61 0 00-.355.787l.984 2.599a.61.61 0 001.14-.432l-.767-2.028 7.835-2.966 5.335 14.096-7.835 2.966-2.768-7.314a.61.61 0 00-1.14.432l2.983 7.884a.61.61 0 00.787.355l8.405-3.182 3.25 8.585a1.425 1.425 0 01-.828 1.835L20.85 52.81a1.425 1.425 0 01-1.836-.828L6.346 18.51z"/></svg><svg viewBox="0 0 48 63" id="carrot" xmlns="http://www.w3.org/2000/svg"><path d="M22.547 6.664h0a5.5 5.5 0 00-3.291 1.394l-.195.175-.166-.202a5.551 5.551 0 00-6.656-1.49 5.55 5.55 0 00-3.06 6.095l.05.256-.258.04a5.5 5.5 0 00-3.163 1.664h0a5.503 5.503 0 00-1.52 3.959h0a5.498 5.498 0 001.725 3.872L22.547 6.664zm0 0a5.502 5.502 0 014.026 1.33 5.498 5.498 0 011.905 3.787c.033.46-.077 1.384-1.365 4.65-.465 1.18-.96 2.349-1.331 3.207l-.111.256.266.083a9.8 9.8 0 015.995 5.179c1.293 2.729 3.528 9.812 4.87 16.48.747 3.718 1.123 6.801 1.12 9.167h.25-.25c0 1.599-.18 2.849-.528 3.777-.348.923-.858 1.515-1.522 1.83-.664.315-1.445.334-2.38.019-.94-.318-2.02-.971-3.258-1.982l-.158.193.158-.193c-1.832-1.497-3.98-3.74-6.385-6.674-4.311-5.26-8.378-11.475-9.671-14.204a9.8 9.8 0 01-.213-7.919l.105-.258-.268-.077c-.9-.256-2.118-.613-3.326-1h0M22.547 6.664L10.475 24.315m0 0c-3.342-1.07-4.127-1.571-4.462-1.888l4.463 1.888zm-4.512-5.804a3.837 3.837 0 001.203 2.7l.005.006.006.005c.142.118.426.262.803.423.388.166.907.365 1.544.588 1.275.447 3.036.998 5.206 1.604l.17.048.102-.146c.341-.49.73-.952 1.16-1.377l.17-.167-.159-.178c-2.927-3.279-5.13-5.806-6.143-7.36l-.074-.114H9.82a3.84 3.84 0 00-2.797 1.206h0a3.841 3.841 0 00-1.06 2.762zm0 0l.25-.007m-.25.007l.25-.007m0 0a3.591 3.591 0 01.991-2.583m-.991 2.583a3.587 3.587 0 001.125 2.526l-.134-5.109m0 0a3.59 3.59 0 012.616-1.128l-2.616 1.129zm17.94 30.79c.15.183.297.36.443.535l.124.15.175-.084 3.58-1.697a.838.838 0 11.717 1.514l-3.042 1.442-.301.143.22.249c2.34 2.636 4.125 4.207 5.426 5.078.65.435 1.187.7 1.62.834.423.131.784.147 1.049.021.297-.14.536-.488.712-.995.18-.52.314-1.256.362-2.254.096-1.999-.146-5.088-1.07-9.681-1.312-6.525-3.478-13.428-4.741-16.093-1.924-4.06-6.793-5.799-10.853-3.874-4.06 1.924-5.798 6.792-3.874 10.853 1.263 2.665 5.235 8.712 9.453 13.86zm0 0l.194-.158m-.194.158s0 0 0 0l.194-.158m0 0c.149.182.295.359.44.533l9.27 7.584c.817-.387 1.71-3.489-.134-12.655-1.31-6.515-3.471-13.396-4.722-16.035-1.865-3.936-6.584-5.62-10.52-3.755-3.935 1.865-5.62 6.584-3.755 10.52 1.25 2.639 5.208 8.668 9.42 13.808zm-5.389-26.51l.201-.068-.033-.209c-.276-1.74-.62-3.87-.972-5.729a51.84 51.84 0 00-.53-2.508c-.172-.708-.344-1.289-.51-1.64a3.869 3.869 0 00-5.148-1.834 3.869 3.869 0 00-1.84 5.146c.161.34.486.82.909 1.379.426.564.963 1.226 1.56 1.936 1.195 1.42 2.636 3.042 3.923 4.483l.14.157.18-.112a9.899 9.899 0 012.12-1.002zm6.858-8.134v-.015a3.831 3.831 0 00-1.328-2.631 3.842 3.842 0 00-2.81-.929 3.84 3.84 0 00-2.704 1.402l-.086.105.041.129c.585 1.84 1.182 5.324 1.832 9.413l.037.235.236-.025a9.768 9.768 0 011.776-.024l.177.014.072-.162c.904-2.063 1.593-3.776 2.054-5.047.23-.635.406-1.163.523-1.57.114-.395.182-.708.18-.895z" stroke="#F5FAFF" stroke-width=".5"/><path d="M21.632 29.047a.838.838 0 11.718 1.514l-3.478 1.648a.838.838 0 01-.717-1.514l3.477-1.648zM24.674 36.395l5.564-2.637a.838.838 0 11.718 1.513l-5.565 2.637a.838.838 0 11-.717-1.514z" stroke="#F5FAFF" stroke-width=".5"/></svg><svg viewBox="0 0 37 38" id="chat" xmlns="http://www.w3.org/2000/svg"><path d="M32.07 22.031a1.189 1.189 0 00-.656 1.548l1.695 4.191.23.571-.563-.248-5.033-2.219a1.189 1.189 0 00-.946-.005l-.098-.23.098.23a14.123 14.123 0 01-5.574 1.126c-7.836 0-13.127-6.139-13.127-11.914 0-6.593 5.912-11.914 13.127-11.914 7.215 0 13.127 5.321 13.127 11.914 0 .515-.048 1.128-.13 1.685l-.248-.037.247.037a1.189 1.189 0 102.352.35c.101-.678.157-1.402.157-2.035 0-3.835-1.623-7.437-4.58-10.142-2.921-2.674-6.8-4.15-10.925-4.15-4.125 0-8.004 1.476-10.926 4.15-2.642 2.418-4.217 5.551-4.523 8.926l-.01.12-.1.066C2.35 16.245.393 19.754.393 23.526c0 2.357.743 4.594 2.158 6.522l.083.112-.052.13L.48 35.487l-.231-.094.231.094a1.188 1.188 0 001.102 1.634l30.488-15.09zm0 0a1.189 1.189 0 011.549.657l3.022 7.476c.181.449.073.963-.275 1.3l.174.179-.174-.18a1.189 1.189 0 01-1.307.235l-7.719-3.403-.094-.042-.096.037c-.954.365-1.938.638-2.944.819l-.11.02-.06.096c-1.023 1.684-2.485 3.112-4.265 4.152-1.986 1.162-4.282 1.783-6.645 1.801h-.016l-.004.001c-.036.003-.06.005-.084.005-1.634 0-3.216-.283-4.712-.84l-.095-.035-.093.041-6.06 2.671m30.009-14.99L2.063 37.021m0 0a1.188 1.188 0 01-.48.101l.48-.1zm10.9-4.216h.01c.036-.001.036-.002.04-.003h.009c2.898 0 5.64-1.131 7.559-3.02l.407-.402-.57-.027c-3.928-.184-7.562-1.717-10.307-4.36-2.206-2.123-3.666-4.824-4.183-7.642l-.085-.462-.336.328c-1.737 1.696-2.735 3.937-2.735 6.309 0 2.07.74 4.03 2.131 5.662l.19-.162-.19.162c.287.338.364.806.198 1.217l-1.087 2.689-.231.57.563-.248 3.37-1.485c.3-.133.643-.135.946-.006 1.352.577 2.799.872 4.3.88z"/><path d="M21.15 16.582a1.439 1.439 0 100-2.878 1.439 1.439 0 000 2.878zM26.907 16.582a1.439 1.439 0 100-2.878 1.439 1.439 0 000 2.878zM15.396 16.582a1.439 1.439 0 100-2.878 1.439 1.439 0 000 2.878z"/></svg><svg viewBox="0 0 22 22" id="cross" xmlns="http://www.w3.org/2000/svg"><rect width="3.701" height="27.14" rx="1.85" transform="matrix(.71317 .701 -.71317 .701 19.36 0)"/><rect width="3.701" height="27.14" rx="1.85" transform="matrix(.71317 -.701 .71317 .701 0 2.975)"/></svg><svg fill="none" viewBox="0 0 51 65" id="feature-1" xmlns="http://www.w3.org/2000/svg"><path d="M8.319 53.37l.78.14c.19.035 2.121.368 4.778.368 3.975 0 9.576-.746 13.405-4.358 6.386-6.026 5.098-17.438 5.04-17.921l-.094-.787-.78-.14c-.479-.086-11.797-2.034-18.183 3.991-6.387 6.026-5.099 17.439-5.04 17.921l.094.787zm17.493-5.408c-4.063 3.833-10.78 3.924-14.196 3.679l9.59-9.05 7.13 1.85c-.63 1.298-1.452 2.51-2.524 3.52zm3.332-5.523l-6.098-1.582 7.264-6.854c.027 2.069-.137 5.331-1.166 8.436zm-.393-9.91L16.758 43.846l-1.59-8.011c4.02-3.39 10.238-3.525 13.583-3.305zm-15.38 5.253l1.547 7.798L10.235 50c-.023-3.034.38-8.398 3.137-12.218z" fill="#64D370"/><path d="M43.041 11.231c0-2.764-1.076-5.363-3.031-7.318A10.277 10.277 0 0032.69.881c-.861 0-1.718.107-2.545.317l.528 2.076a8.186 8.186 0 012.017-.251 8.15 8.15 0 015.804 2.404 8.155 8.155 0 012.405 5.804v8.162H30.62v-8.161c0-5.707-4.643-10.35-10.35-10.35s-10.35 4.643-10.35 10.35v8.16H0v39.759a5.36 5.36 0 005.353 5.353h39.83a5.36 5.36 0 005.353-5.353V19.393h-7.495V11.23zm-30.978 0c0-4.525 3.682-8.208 8.208-8.208 4.527 0 8.209 3.683 8.209 8.209v8.16h-3.997v-8.16c0-1.009.18-1.991.536-2.92l-2-.765a10.262 10.262 0 00-.678 3.684v8.162H12.063v-8.161zm26.339 47.92a3.216 3.216 0 01-3.212 3.212H5.353a3.216 3.216 0 01-3.212-3.212V21.534h36.26v37.617zm6.78 3.212h-3.861l3.148-5.486 2.736 4.767a3.195 3.195 0 01-2.022.719zm-1.784-40.829v6.067h2.141v-6.067h2.856v37.617c0 .083-.005.165-.01.246l-2.846-4.957V30.457H43.4V54.44l-2.863 4.989c.005-.093.007-.185.007-.278V21.534h2.855z" fill="#64D370"/></svg><svg fill="none" viewBox="0 0 67 67" id="feature-2" xmlns="http://www.w3.org/2000/svg"><path d="M60.014 45.423l-15.01 8.893-5.719-3.613h7.189a4.15 4.15 0 100-8.298H34.126a11.46 11.46 0 00-4.157.755l-9.602 4.36v-.966a1.131 1.131 0 00-1.132-1.131h-8.298a1.131 1.131 0 00-1.131 1.131v18.858a1.132 1.132 0 001.131 1.132h8.298a1.131 1.131 0 001.132-1.132v-1.131h23.452a7.03 7.03 0 004.133-1.335L63.99 51.457a3.643 3.643 0 00-3.976-6.034zM18.104 64.28h-6.035V47.686h6.035V64.28zm44.573-14.627L46.632 61.113a4.79 4.79 0 01-2.813.905H20.367V50l10.47-4.73a9.15 9.15 0 013.289-.603h12.348a1.886 1.886 0 010 3.772H35.378a1.132 1.132 0 00-.604 2.09l9.603 6.034a1.131 1.131 0 001.184 0l15.615-9.27a1.38 1.38 0 011.509 2.308l-.008.052zM65.25 36.37h-2.64A29.08 29.08 0 0037.225 8.324a4.904 4.904 0 10-7.31 0A29.072 29.072 0 004.527 36.37H1.13a1.132 1.132 0 000 2.263H65.25a1.131 1.131 0 100-2.263zM33.567 2.425a2.64 2.64 0 110 5.28 2.64 2.64 0 010-5.28zm0 7.921A26.801 26.801 0 0160.346 36.37H6.79a26.801 26.801 0 0126.779-26.024z" fill="#64D370"/><path d="M27.486 15.71a22.222 22.222 0 00-14.182 12.197 1.132 1.132 0 102.06.92 19.967 19.967 0 0112.74-10.938 1.133 1.133 0 10-.618-2.18z" fill="#64D370"/></svg><svg fill="none" viewBox="0 0 69 68" id="feature-3" xmlns="http://www.w3.org/2000/svg"><path d="M63.31 14.883h-.092l.051.078a34.036 34.036 0 01-4.432 42.667 33.992 33.992 0 01-36.777 7.51 1.281 1.281 0 01-.71-1.667l-.046-.019.046.019a1.281 1.281 0 011.667-.71 31.434 31.434 0 0034.008-6.945c10.131-10.132 12.008-25.938 4.949-38.078l-.093-.16v1.837a1.281 1.281 0 11-2.563 0v-5.813c0-.707.574-1.28 1.282-1.28h5.812a1.281 1.281 0 110 2.561h-3.101zM7.056 50.362l.093.155V48.442a1.281 1.281 0 112.562 0v5.934c0 .707-.574 1.281-1.281 1.281H2.495a1.281 1.281 0 010-2.562h3.257l-.052-.078a34.033 34.033 0 014.315-42.844A33.852 33.852 0 0127.636.818 34.019 34.019 0 0146.99 2.744l.02-.046-.02.046a1.281 1.281 0 11-.97 2.37 31.404 31.404 0 00-34.192 6.87C1.612 22.2-.209 38.184 7.056 50.362z" fill="#64D370" stroke="#E5E5E5" stroke-width=".1"/><path d="M31.218 28.76a.883.883 0 00-.4 1.184l4.399 8.894a.883.883 0 101.583-.783l-4.399-8.894a.884.884 0 00-1.183-.4zM40.545 36.203l-4.399-8.894a.884.884 0 00-1.583.783l4.399 8.894a.883.883 0 001.583-.783z" fill="#64D370" stroke="#64D370" stroke-width=".2"/><path d="M52.377 17.728v.002a.85.85 0 01.008.195.868.868 0 01-.01.162c0 .04-.003.081-.008.121l-.002.012-.005.011-.023.058c-.133.335-3.324 8.176-9.236 13.657l2.034 4.113a8.205 8.205 0 01.822 5.024v.003l-.302 1.684v.001a6.522 6.522 0 00.648 3.896h0l3.277 6.625a.884.884 0 01-1.584.783l-3.276-6.623a8.205 8.205 0 01-.812-5.006v-.002l.301-1.684v-.002a6.522 6.522 0 00-.657-3.914v-.001L38.308 26.24a.883.883 0 111.583-.783l2.392 4.835c4.242-4.108 7.006-9.556 8.021-11.728-2.71-.61-10.453-2.02-17.071-.131.484 2.049.808 4.133.969 6.233h0a.884.884 0 01-1.763.13 42.912 42.912 0 00-2.101-10.04l-8.972 26.508c1.968-.296 5.723-1.255 8.244-4.338l-2.537-5.13a.884.884 0 011.584-.782L33.9 41.615v.002h0a6.517 6.517 0 002.712 2.897l.002.001 1.52.783h.003a8.2 8.2 0 013.485 3.685l3.276 6.623a.883.883 0 11-1.584.783l-3.276-6.624h0a6.516 6.516 0 00-2.703-2.88l-.002-.001-1.53-.802h-.002a8.2 8.2 0 01-3.485-3.684l-1.857-3.755a13.267 13.267 0 01-3.889 2.87m25.806-23.786l-25.85 23.695m25.85-23.695a.622.622 0 00-.15-.307.845.845 0 00-.106-.124h0l-.006-.006a.87.87 0 00-.14-.094.843.843 0 00-.1-.066l-.008-.005-.01-.003-.062-.02v-.001l-.009-.003a8.534 8.534 0 01-.09-.022c-1.107-.28-10.645-2.694-18.919-.356a41.682 41.682 0 00-1.665-4.963h0l-.003-.006h0v-.001h0-.001 0v-.001h0v-.001h0-.001 0v-.001h0v-.001h0-.001 0v-.001h0v-.001h0-.001 0v-.001h0v-.001h0-.001 0v-.001h0v-.001h0-.001 0v-.001h0v-.001h0-.001 0v-.001h0v-.001h0-.001 0v-.001h0v-.001h0-.001 0v-.001h0v-.001h0-.001 0v-.001h0v-.001h0-.001 0v-.001h0v-.001h0-.001v-.001h0v-.001h0-.001v-.001h0v-.001h0-.001v-.001h0v-.001h0l-.001-.001h0v-.001h0-.001v-.001h0v-.001h0l-.001-.001h0v-.001h0l-.001-.001h0v-.001h0l-.001-.001h0v-.001h0l-.001-.001h0v-.001h0l-.001-.001h0v-.001h0l-.001-.001h0v-.001h0l-.001-.001h0v-.001h0v-.001h-.001 0v-.001h0v-.001h0-.001 0V11.7h0V11.7h0-.001 0v-.001h0v-.001h0-.001 0v-.001h0v-.001h0-.001 0v-.001h0v-.001h0-.001 0v-.001h0v-.001h0-.001 0v-.001h0v-.001h0-.001 0v-.001h0v-.001h0-.001 0v-.001h0v-.001h0-.001 0v-.001h0v-.001h0-.001 0v-.001h0v-.001h0-.001 0v-.001h0v-.001h0-.001 0v-.001h0v-.001h0-.001 0v-.001h0v-.001h0l21.305 6.052zM26.571 41.513l-.043-.09m.043.09s0 0 0 0l-.043-.09m.043.09a16.519 16.519 0 01-6.466 1.66m6.423-1.75a16.419 16.419 0 01-6.449 1.652m.026.098l.019-.009-.045-.09m.026.1l-.019.009-.025.012-.028-.002-.08-.008h-.007l-.007-.002-.126-.031-.013-.003v-.001l-.072-.028-.005-.002h0a.874.874 0 01-.147-.086l-.02-.014-.012-.023-.006-.012m.567.19l-.021.002-.005-.1m0 0l-.541-.093m0 0c-.288-.233-2.174-1.84-3.659-4.441-1.52-2.664-2.624-6.377-1.153-10.725 1.705-5.054 5.754-9.26 8.839-11.894a44.657 44.657 0 016.328-4.548l.006-.004h0l.192-.095.007-.003.007-.003a.908.908 0 01.195-.04l.011-.004.02-.01h.024c.072-.002.145.007.215.024h.004a.87.87 0 01.219.097l.024.015.013.026.002.004c.06.04.113.089.16.143l.006.007.004.007-11.464 31.445zm10.875-4.434l.072-.078.048.096-.12-.018zm-11.389-15.23c2.967-4.197 7.146-7.419 9.63-9.119l-5.741 16.98-3.889-7.861zm.669 17.394c-1.813-1.833-5.349-6.383-3.323-12.375.398-1.152.91-2.26 1.529-3.31l4.215 8.523-2.421 7.162z" fill="#64D370" stroke="#64D370" stroke-width=".2"/></svg><svg fill="none" viewBox="0 0 63 63" id="feature-4" xmlns="http://www.w3.org/2000/svg"><path d="M53.432 52.175v0c0 5.785-4.765 10.49-10.62 10.49h-32.1c-5.378 0-9.753-4.321-9.753-9.634m52.473-.856L48.685 8.759m4.747 43.416a10.429 10.429 0 00-3.99-8.185m3.99 8.185l-4.044-8.165.055-.02M.959 53.03h.05-.05s0 0 0 0zm0 0a9.508 9.508 0 012.768-6.718 9.743 9.743 0 015.328-2.768 11.033 11.033 0 01-.288-2.494c0-6.257 5.154-11.346 11.488-11.346 1.316 0 2.621.226 3.86.668a19.955 19.955 0 01-.564-4.726m0 0h.05m-.05 0s0 0 0 0h.05m-.05 0c0-10.785 8.593-19.561 19.158-19.561 1.873 0 4.05.08 5.941.688a1.077 1.077 0 01.053 2.033M23.6 25.646c-.001 1.6.19 3.193.57 4.747L48.635 6.82c-1.884-.605-4.053-.686-5.926-.686-10.536 0-19.108 8.752-19.108 19.511zm25.102-16.84l-.018-.047m.018.047s0 0 0 0l-.018-.047m.018.047c-4.73 1.795-8.034 6.624-8.034 11.741 0 6.788 5.391 12.308 12.016 12.308 2.48 0 4.47-.551 6.266-1.734a1.077 1.077 0 011.61 1.25c-1.881 5.451-5.951 9.657-11.118 11.619m-.758-35.231c-4.75 1.803-8.066 6.65-8.066 11.788 0 6.814 5.413 12.359 12.066 12.359 2.488 0 4.488-.554 6.294-1.743a1.026 1.026 0 011.535 1.192c-1.88 5.447-5.951 9.648-11.117 11.599l.046.036M24.129 30.43a11.444 11.444 0 00-3.874-.676c-6.307 0-11.438 5.067-11.438 11.296 0 .837.097 1.67.287 2.486L24.129 30.43zM5.26 47.827h0a7.62 7.62 0 015.226-2.264h0a1.076 1.076 0 00.981-1.441h0a9.04 9.04 0 01-.545-3.071c0-5.068 4.186-9.192 9.333-9.192 3.88 0 7.393 2.413 8.745 6.003a1.076 1.076 0 001.453.601h0a6.762 6.762 0 012.817-.614c3.196 0 5.97 2.236 6.598 5.315a1.077 1.077 0 001.265.841l-.01-.049.01.05a8.672 8.672 0 011.68-.167c4.669 0 8.466 3.741 8.466 8.337s-3.797 8.337-8.466 8.337h-32.1c-4.191 0-7.6-3.357-7.6-7.481a7.366 7.366 0 012.147-5.205zM45.039 8.31c-3.953 2.698-6.524 7.356-6.524 12.238 0 7.974 6.356 14.462 14.17 14.462 1.734 0 3.274-.234 4.694-.724-2.208 4.097-5.943 7.082-10.417 8.236a10.719 10.719 0 00-5.249-.78c-1.179-3.558-4.58-6.046-8.444-6.046-.911-.001-1.817.139-2.685.414a11.422 11.422 0 00-3.813-4.384 17.689 17.689 0 01-1.066-6.079v0c0-9.6 7.63-17.408 17.004-17.408.746 0 1.539.014 2.33.071z" fill="#64D370" stroke="#64D370" stroke-width=".1"/><path d="M53.251 23.163l1.158-1.737 1.158 1.737h0a1.077 1.077 0 001.792-1.195h0l-1.272-1.907 1.743-.582h0a1.076 1.076 0 00-.68-2.043h0l-1.664.555v-1.587a1.077 1.077 0 10-2.154 0v1.587l-1.663-.555s0 0 0 0a1.08 1.08 0 00-1.372.678 1.078 1.078 0 00.69 1.365h.001l1.743.581-1.272 1.908s0 0 0 0a1.078 1.078 0 101.792 1.195s0 0 0 0zM8.067 31.21l-1.272-1.907 1.743-.582h0a1.077 1.077 0 00-.68-2.043h0l-1.664.555v-1.587a1.077 1.077 0 10-2.154 0v1.587l-1.663-.555s0 0 0 0a1.077 1.077 0 10-.681 2.043s0 0 0 0l1.743.581-1.272 1.908s0 0 0 0a1.076 1.076 0 101.792 1.195s0 0 0 0l1.158-1.737 1.158 1.737s0 0 0 0a1.077 1.077 0 101.792-1.195s0 0 0 0zM10.121 10.84h0l1.158-1.737 1.158 1.737h0a1.077 1.077 0 001.792-1.195h0l-1.272-1.908 1.744-.58v-.001a1.077 1.077 0 00-.681-2.043h0l-1.664.554V4.081a1.077 1.077 0 00-2.154 0v1.586L8.54 5.113h0a1.077 1.077 0 00-.682 2.043h0l1.744.581L8.33 9.645s0 0 0 0a1.077 1.077 0 00.299 1.493l.028-.041-.028.041a1.077 1.077 0 001.493-.298zM59.545 7.212a1.077 1.077 0 100-2.154 1.077 1.077 0 000 2.154zM17.439 22.616a1.077 1.077 0 100-2.154 1.077 1.077 0 000 2.154zM32.844 3.104a1.077 1.077 0 100-2.154 1.077 1.077 0 000 2.154zM61.599 43.154a1.077 1.077 0 100-2.154 1.077 1.077 0 000 2.154z" fill="#64D370" stroke="#64D370" stroke-width=".1"/></svg><svg fill="none" viewBox="0 0 100 69" id="feature-5" xmlns="http://www.w3.org/2000/svg"><path d="M71.251 28.76v.1h13.177c4.09 0 7.852 2.025 10.066 5.415l.084-.055-.084.055 5.056 7.736.084-.054-.084.054c.157.24.242.524.242.813v17.649c0 .82-.664 1.486-1.486 1.486h-5.422l-.018.077c-.892 3.835-4.332 6.705-8.434 6.705-4.102 0-7.541-2.87-8.433-6.705l-.018-.077H45.316l-.018.077c-.891 3.835-4.33 6.705-8.434 6.705-4.103 0-7.542-2.87-8.433-6.705l-.018-.077H14.27c-.82 0-1.486-.665-1.486-1.486v-1.565c0-3.205 1.937-5.96 4.698-7.177l.06-.026v-7.188H1.585a1.485 1.485 0 110-2.972H17.54v-3.37H11.1a1.484 1.484 0 110-2.972H17.54v-3.37H1.586a1.485 1.485 0 110-2.973h13.423l-.275-.183c-4.15-2.771-6.891-7.494-6.891-12.847C7.843 7.316 14.768.388 23.284.388c7.52 0 13.794 5.408 15.159 12.536l.015.08h24.563c4.539 0 8.23 3.692 8.23 8.231v7.525zM20.612 44.517h-.1v6.544h.1l.024-.002H68.28V21.235c0-2.9-2.36-5.26-5.259-5.26H38.716l-.002.1c-.083 5.25-2.793 9.873-6.88 12.602l-.274.183H41.225a1.486 1.486 0 110 2.972H20.512v3.371h11.2a1.485 1.485 0 010 2.971h-11.2v3.371h3.271a1.485 1.485 0 110 2.972h-3.17zm47.568 14.47h.1V54.03H43.057l.156.168A8.63 8.63 0 0145.44 58.9l.012.087H68.18zm-37.664-4.79l.156-.167H20.632a4.884 4.884 0 00-4.877 4.856v.1h12.522l.012-.086a8.627 8.627 0 012.227-4.702zm66.204 4.79h.1V43.266l-.016-.025-4.797-7.341-.083.054.083-.054c-1.664-2.548-4.499-4.068-7.58-4.068H71.252v27.155H75.844l.012-.087c.578-4.222 4.199-7.49 8.576-7.49 4.378 0 8 3.268 8.577 7.49l.011.087h3.7zM23.284 3.359c-6.876 0-12.47 5.595-12.47 12.47 0 6.877 5.594 12.472 12.47 12.472 6.877 0 12.471-5.595 12.471-12.471S30.161 3.359 23.285 3.359zm7.886 56.717a5.701 5.701 0 005.694 5.694 5.7 5.7 0 005.695-5.694 5.701 5.701 0 00-5.695-5.694 5.702 5.702 0 00-5.694 5.694zm47.568 0a5.701 5.701 0 005.694 5.694 5.7 5.7 0 005.695-5.694 5.701 5.701 0 00-5.695-5.694 5.702 5.702 0 00-5.694 5.694z" fill="#64D370" stroke="#E5E5E5" stroke-width=".2"/><path d="M22.278 15.372l.02-.027V8.893a1.484 1.484 0 112.971 0v6.937c0 .315-.1.621-.285.875l-3.541 4.855h0a1.482 1.482 0 01-2.076.325h0a1.483 1.483 0 01-.325-2.074h0l3.236-4.44zM93.84 43.718h.001a2.621 2.621 0 01-.008 2.646 2.63 2.63 0 01-2.297 1.324H80.865a1.485 1.485 0 01-1.486-1.486V35.103c0-.821.664-1.486 1.486-1.486h3.033a7.204 7.204 0 016.24 3.62l3.703 6.481zm-11.49.899v.1H90.99l-.086-.15-3.345-5.854s0 0 0 0a4.222 4.222 0 00-3.66-2.124H82.35v8.028z" fill="#64D370" stroke="#E5E5E5" stroke-width=".2"/></svg><svg fill="none" viewBox="0 0 69 69" id="feature-6" xmlns="http://www.w3.org/2000/svg"><path d="M34.083 67.917C15.427 67.917.25 52.74.25 34.084.25 15.427 15.427.25 34.083.25c18.657 0 33.834 15.177 33.834 33.834 0 18.656-15.177 33.833-33.834 33.833zm0-63.907C17.5 4.01 4.01 17.5 4.01 34.084c0 16.583 13.49 30.073 30.073 30.073 16.584 0 30.074-13.49 30.074-30.073 0-16.584-13.49-30.074-30.074-30.074z" fill="#64D370" stroke="#E5E5E5" stroke-width=".5"/><path d="M47.667 51.745v-.001L32.755 36.832a1.88 1.88 0 01-.551-1.328V15.621a1.881 1.881 0 013.76 0v19.103l.073.073 14.287 14.287a1.88 1.88 0 010 2.66h0a1.864 1.864 0 01-1.328.552c-.483 0-.963-.183-1.329-.551z" fill="#64D370" stroke="#E5E5E5" stroke-width=".5"/></svg><svg viewBox="0 0 40 40" id="fish" xmlns="http://www.w3.org/2000/svg"><path d="M31.036 14.905c-.658 0-1.152.524-1.152 1.152a1.152 1.152 0 101.152-1.152zM7.278 11.103c-.599 0-1.048.478-1.048 1.032s.45 1.033 1.048 1.033c.568 0 1.032-.464 1.032-1.033s-.464-1.032-1.032-1.032z"/><path d="M39.336 23.264v.003a.957.957 0 01-.132.639c-.157.257-.355.338-.762.503l-.016.007h0l-.004.002c-4.745 2.033-10.77 1.583-15.878.568-4.757-.957-8.445-2.367-8.951-2.56l-.047-.017c-1.456-.56-2.864-.729-4.205-.496-1.342.234-2.602.867-3.769 1.888-1.287 1.118-2.126 2.432-2.535 3.129l-.076.128.078.128c1.58 2.61 3.84 4.007 6.728 4.115h.001a11.2 11.2 0 003.059-.347c.393-.1.714-.202.938-.281a6.7 6.7 0 00.361-.14l.01-.005a.898.898 0 011.23.66h0c.533 2.793.18 4.871-.992 6.255-1.332 1.56-3.255 1.633-3.55 1.633a.908.908 0 01-.471-.13c-.152-.09-2.04-1.242-4.107-3.252-2.077-2.019-4.315-4.886-5.175-8.398-1-4.086-.267-8.724 2.861-12.944h0a.897.897 0 011.358-.092.89.89 0 01.081 1.17v.002c-2.281 3.1-2.877 6.132-2.892 8.376l-.005.7.447-.539c1.618-1.949 3.461-3.147 5.383-3.665 1.922-.517 3.939-.36 5.913.43.083.034 3.885 1.521 8.754 2.483l.466.092-.189-.437c-1.14-2.642-1.638-5.273-1.3-7.677.337-2.397 1.508-4.584 3.74-6.347l.392-.31-.483-.128c-2.127-.562-4.415-.698-6.637-.531-1.857.136-4.022.528-5.773 1.213h-.001c-.739.293-1.442.676-2.274 1.22h0l-.002.002c-.03.02-.058.037-.09.056l-.034.02a1.435 1.435 0 00-.141.096.886.886 0 01-1.126-.11h0l-.002-.003a.891.891 0 01.13-1.38s0 0 0 0l.267-.177s0 0 0 0c1.591-1.046 2.97-1.678 5.258-2.18l.328-.072-.163-.293c-.688-1.235-1.88-2.633-4.667-3.265h0l-.006-.001c-.877-.175-.995-1.415-.101-1.734 3.755-1.3 7.552-1.33 10.71.925h0c1.78 1.27 2.865 2.953 3.454 4.1l.055.11.12.022c8.529 1.65 13.113 8.181 14.434 16.836zM17.257 6.096l.078.164.18-.024a24.096 24.096 0 014.531-.163l.53.032-.313-.429c-1.338-1.83-3.733-3.792-7.689-3.468l-.7.057.579.398c1.578 1.086 2.333 2.446 2.804 3.433zm-3.46 26.778l-.023-.303-.292.08c-2.384.647-4.93.658-7.202-.275l-.286.392c1.967 2.346 4.203 3.932 4.992 4.448l.08.052.094-.014c.429-.063 1.264-.272 1.875-.999l.002-.002c.628-.76.866-1.93.76-3.38zm11.77-9.32l.06.112.126.017c3.68.51 7.98.607 11.51-.747l.196-.075-.04-.205c-1.085-5.76-3.78-10.788-9.117-13.273l-.12-.056-.114.068c-2.152 1.282-3.548 2.945-4.122 4.98-1.002 3.527.63 7.332 1.62 9.178z" stroke="#F5FAFF" stroke-width=".5"/></svg><svg viewBox="0 0 54 45" id="meat" xmlns="http://www.w3.org/2000/svg"><path d="M48.595 20.477l-.059-.327-.131.306c-.327.762-.743 1.49-1.242 2.166a.811.811 0 01-1.134.17l-.06.08.06-.08a.81.81 0 01-.17-1.134 9.23 9.23 0 001.665-7.1c-.412-2.274-1.741-4.075-3.96-5.394-2.215-1.317-5.317-2.153-9.282-2.506-7.33-.653-15.282.573-18.358 1.13C8.701 9.096 3.89 16.034 5.197 23.255c1.308 7.222 8.246 12.033 15.468 10.725 3.42-.619 5.897-2.221 8.5-3.906l.007-.004c3.008-1.946 6.105-3.95 10.94-4.825.282-.05.563-.116.838-.192l-.027-.097.027.097a.811.811 0 01.437 1.562c-.323.09-.655.166-.986.226-4.517.818-7.487 2.74-10.345 4.589l-.003.002c-2.765 1.789-5.36 3.467-9.1 4.144-5.545 1.004-10.942-1.209-14.266-5.304l-.175.087c1.673 6.752 8.349 11.144 15.287 9.888 3.421-.62 5.898-2.222 8.501-3.906l.007-.004c3.008-1.947 6.105-3.95 10.94-4.825 4.99-.903 8.314-5.698 7.41-10.687l-.063-.348zM34.426 5.042c3.91.349 7.097 1.177 9.476 2.458 2.94 1.582 4.69 3.86 5.218 6.77l1.134 6.266c1.063 5.87-2.848 11.51-8.718 12.572-4.516.818-7.486 2.74-10.344 4.589l-.003.002c-2.765 1.789-5.361 3.467-9.1 4.144-8.101 1.467-15.885-3.93-17.352-12.032l-1.135-6.267C2.136 15.444 7.533 7.66 15.634 6.192c3.146-.57 11.27-1.82 18.792-1.15z" stroke="#F5FAFF" stroke-width=".2"/><path d="M44.123 23.446h0a.811.811 0 01.951 1.314h0a.808.808 0 01-1.131-.166.811.811 0 01.163-1.135h0l.017-.013zM14.07 18.015c-.4-2.209 1.258-4.382 3.719-4.828 2.46-.445 4.774 1.01 5.174 3.219.4 2.209-1.257 4.382-3.718 4.827-2.46.446-4.774-1.008-5.174-3.218zm1.597-.288c.245 1.353 1.734 2.192 3.29 1.91 1.555-.281 2.655-1.59 2.41-2.943-.245-1.353-1.734-2.192-3.29-1.91-1.555.281-2.655 1.59-2.41 2.943z" stroke="#F5FAFF" stroke-width=".2"/></svg><svg viewBox="0 0 6 3" id="minus" xmlns="http://www.w3.org/2000/svg"><path d="M.382.96h5.24V2.2H.382V.96z"/></svg><svg fill="none" viewBox="0 0 28 31" id="phone" xmlns="http://www.w3.org/2000/svg"><path d="M21.206 12.617c-1.933 5.774-7.26 9.78-9.683 11.06l-2.475-4.04-8.556 3.665 1.633 7.54c20.977-1.929 25.46-20.546 25.08-29.614l-6.82-1.08-2.735 9.476 3.556 2.993z" fill="#65CF71"/></svg><svg viewBox="0 0 10 10" id="plus" xmlns="http://www.w3.org/2000/svg"><path d="M9.348 5.6h-3.72v3.64h-1.26V5.6H.648V4.42h3.72V.76h1.26v3.66h3.72V5.6z"/></svg><svg viewBox="0 0 40 43" id="table-five" xmlns="http://www.w3.org/2000/svg"><path d="M20.268 21c-1.248 0-2.366-.286-3.354-.858a6.724 6.724 0 01-2.366-2.366c-.572-.988-.858-2.106-.858-3.354 0-.243.07-.433.208-.572a.778.778 0 01.572-.234c.225 0 .416.078.572.234.156.139.234.33.234.572 0 .936.217 1.785.65 2.548a5.228 5.228 0 001.794 1.794c.763.433 1.612.65 2.548.65.953 0 1.803-.217 2.548-.65a5.01 5.01 0 001.768-1.794c.45-.763.676-1.612.676-2.548 0-.953-.225-1.803-.676-2.548a4.749 4.749 0 00-1.768-1.794c-.745-.45-1.595-.676-2.548-.676h-4.732a.83.83 0 01-.572-.208.83.83 0 01-.208-.572V1.448c0-.225.07-.407.208-.546a.778.778 0 01.572-.234H25c.225 0 .416.078.572.234.156.139.234.32.234.546a.778.778 0 01-.234.572.778.778 0 01-.572.234h-8.684v5.59h3.952c1.248 0 2.366.286 3.354.858a6.26 6.26 0 012.34 2.366c.59.988.884 2.106.884 3.354 0 1.248-.295 2.366-.884 3.354a6.515 6.515 0 01-2.34 2.366c-.988.572-2.106.858-3.354.858zM38.945 25H8.425c-.323 0-.586.324-.586.724 0 .4.263.724.586.724h30.403v2.783H1.172v-2.783h4.91c.323 0 .586-.324.586-.724 0-.4-.263-.724-.586-.724H1.055C.473 25 0 25.585 0 26.303v3.072c0 .72.473 1.304 1.055 1.304h.826v10.873c0 .719.473 1.303 1.055 1.303h2.011c.582 0 1.055-.584 1.055-1.303v-7.123-1.448-2.302h27.745v11.018c0 .718.473 1.303 1.054 1.303h2.012c.581 0 1.055-.585 1.055-1.303V30.679h1.077c.582 0 1.055-.585 1.055-1.303v-3.073c0-.718-.473-1.303-1.055-1.303zM4.83 41.407H3.053V30.68H4.83v10.728zm31.866.145h-1.777V30.679h1.777v10.873z"/></svg><svg viewBox="0 0 30 30" id="telegram" xmlns="http://www.w3.org/2000/svg"><path d="M25.154 3.984a2.718 2.718 0 00-.894.217c-.25.1-1.204.51-2.707 1.154-1.505.646-3.497 1.5-5.621 2.415-4.25 1.827-9.028 3.884-11.475 4.937-.092.04-.413.142-.754.408-.34.266-.703.818-.703 1.432 0 .495.236.987.533 1.281.297.294.612.44.881.549l4.58 1.873c.202.617 1.298 3.973 1.553 4.795.168.543.327.883.535 1.152.104.135.225.253.371.346.059.037.123.066.188.092l.004.002c.014.006.027.016.043.021.028.01.047.011.085.02.153.049.307.08.444.08.585 0 .943-.322.943-.322l.022-.016 3.01-2.604 3.65 3.454c.051.072.53.73 1.588.73.627 0 1.125-.315 1.445-.65.32-.336.519-.688.604-1.131v-.002c.079-.419 3.443-17.69 3.443-17.69l-.006.024c.098-.45.124-.868.016-1.281a1.748 1.748 0 00-.75-1.022 1.798 1.798 0 00-1.028-.264zm-.187 2.09c-.005.03.003.015-.004.049l-.002.012-.002.011s-3.323 17.05-3.445 17.7c.009-.05-.032.048-.075.107-.06-.04-.181-.094-.181-.094l-.02-.021-4.986-4.717-3.525 3.047 1.048-4.2s6.557-6.786 6.952-7.18c.318-.317.384-.427.384-.536 0-.146-.076-.252-.246-.252-.153 0-.359.149-.469.219-1.433.913-7.724 4.58-10.544 6.22-.449-.183-3.562-1.458-4.618-1.888l.014-.006 11.473-4.938 5.62-2.414c1.48-.634 2.51-1.071 2.626-1.119z"/></svg><svg viewBox="0 0 48 48" id="viber" xmlns="http://www.w3.org/2000/svg"><path d="M22.79 3.998c-3.359.022-10.168.357-14.573 4.32a1.5 1.5 0 00-.063.059C5.275 11.283 4 15.449 4 21v2.998c0 5.55 1.283 9.726 4.219 12.686a1.5 1.5 0 00.062.06c1.261 1.133 2.893 1.967 4.719 2.633v3.586a3.009 3.009 0 003 3c.837 0 1.654-.353 2.232-.996.019-.02 2.3-2.488 3.682-4.012a81.51 81.51 0 002.084.045c2.574 0 10.75.211 15.785-4.318a1.5 1.5 0 00.063-.06C42.725 33.714 44 29.548 44 23.997L43.998 21c0-5.552-1.282-9.726-4.217-12.684a1.5 1.5 0 00-.062-.058C34.738 3.78 26.574 3.998 24 3.998c-.322 0-.731-.003-1.21 0zm1.21 3c2.568 0 10.035.225 13.682 3.473 2.242 2.282 3.316 5.448 3.316 10.529L41 24c0 5.078-1.081 8.253-3.254 10.469C34.026 37.785 26.566 38 23.998 38c-.615 0-1.538 0-2.654-.057a1.5 1.5 0 00-1.196.498c-1.182 1.323-4.13 4.5-4.13 4.5a1.5 1.5 0 00-.018.02v-4.592a1.5 1.5 0 00-1.07-1.437c-1.98-.593-3.508-1.418-4.61-2.399C8.075 32.248 7 29.08 7 23.998V21c0-5.078 1.08-8.253 3.252-10.469C13.97 7.214 21.432 6.998 24 6.998zM24 11a1 1 0 000 2c4.962 0 9 4.038 9 9v1a1 1 0 002 0v-1c0-6.065-4.935-11-11-11zm-7.91 1c-.64-.001-1.477.315-2.045.738-.854.637-1.747 1.504-1.986 2.584-.032.147-.051.296-.057.444-.046 1.125.394 2.267.871 3.234 1.123 2.279 2.61 4.485 4.227 6.455.517.63 1.08 1.215 1.664 1.781a21.913 21.913 0 001.78 1.664c1.97 1.617 4.177 3.104 6.456 4.227.958.472 2.085.905 3.2.873.158-.005.319-.024.478-.059 1.08-.238 1.947-1.132 2.584-1.986.423-.568.739-1.405.738-2.045-.001-.378-.173-.74-.549-1.056-1.11-.936-1.624-1.218-3.158-2.14-.639-.382-1.612-.714-2.123-.714-.35 0-.768.267-1.024.523-.656.656-.871 1.477-2.021 1.477-1.125 0-3.09-1.145-4.5-2.625C19.145 23.965 18 22 18 20.875c0-1.15.807-1.38 1.463-2.037.256-.255.537-.673.537-1.022 0-.51-.332-1.47-.715-2.109-.92-1.535-1.202-2.048-2.139-3.158-.317-.376-.678-.548-1.056-.549zm8.338 2.018a.999.999 0 10-.105 1.996A5.993 5.993 0 0130 22a1 1 0 002 0 7.991 7.991 0 00-7.572-7.982zm.426 3.134a1 1 0 00-.104 1.957 2.989 2.989 0 012.14 2.143 1 1 0 101.936-.506 4.991 4.991 0 00-3.574-3.572 1.01 1.01 0 00-.398-.022z"/></svg><svg viewBox="0 0 48 48" id="vk" xmlns="http://www.w3.org/2000/svg"><path d="M5.436 10.957c-2.242 0-3.949 2.204-3.33 4.371 1.609 5.649 3.995 11.18 7.556 15.53 3.561 4.349 8.378 7.501 14.537 8.126 2.05.208 3.819-1.463 3.819-3.49v-4.047c0-.252.172-.432.369-.437l.084-.002c.707 0 2.16.886 3.437 2.263 1.277 1.378 2.406 3.083 2.95 4.028v.002a3.438 3.438 0 002.978 1.71h4.873c2.427.003 4.051-2.74 2.863-4.863-1.864-3.335-5.585-6.634-7.445-8.279 3.409-3.743 5.668-7.822 6.67-10.527.756-2.044-.803-4.344-3-4.344h-3.479c-1.512 0-2.921.737-3.498 1.916-2.707 5.548-5.12 7.585-6.82 9.053v-7.528c0-1.877-1.558-3.426-3.43-3.43L18.48 11c-1.94-.002-3.143 2.393-1.981 3.947l1.176 1.574.002.004c.201.267.308.586.308.914v.002l.024 6.278c-2.423-2.556-5.055-7.968-5.85-10.383v-.002a3.465 3.465 0 00-3.271-2.367h-.002l-3.447-.01h-.002zm0 3l3.443.01c.212 0 .367.115.43.304.986 3 3.577 8.714 6.863 11.915.853.83 2.105 1 3.076.605.97-.394 1.762-1.416 1.762-2.615v-.002l-.026-6.735c0-.98-.32-1.934-.91-2.716l-.002-.004-.537-.717 5.03.008c.262 0 .435.171.435.43v7.603c0 2.435 3.066 3.834 4.91 2.242h.002c1.69-1.46 4.68-4.065 7.604-10.055.067-.138.008-.232.802-.232h3.479c.202 0 .262.096.185.303-.85 2.298-3.021 6.306-6.24 9.773-.992 1.07-.951 2.835.17 3.828 1.758 1.555 5.595 5.124 7.041 7.71.132.236.033.4-.242.4h-4.875a.427.427 0 01-.379-.21c-.65-1.129-1.841-2.944-3.348-4.57-1.506-1.625-3.3-3.224-5.638-3.224-.067 0-.12 0-.162.002h-.006c-1.862.052-3.285 1.632-3.285 3.437v4.047c0 .311-.24.534-.516.506-5.324-.54-9.336-3.156-12.52-7.043C8.8 25.07 6.526 19.895 4.99 14.506c-.086-.301.099-.549.446-.549z"/></svg><svg viewBox="0 0 24 24" id="whatsapp" xmlns="http://www.w3.org/2000/svg"><path d="M12.012 2c-5.506 0-9.989 4.478-9.99 9.984a9.964 9.964 0 001.333 4.993L2 22l5.232-1.236a9.981 9.981 0 004.774 1.215h.004c5.505 0 9.985-4.48 9.988-9.985a9.922 9.922 0 00-2.922-7.066A9.923 9.923 0 0012.012 2zm-.002 2a7.95 7.95 0 015.652 2.342 7.93 7.93 0 012.336 5.65c-.002 4.404-3.584 7.987-7.99 7.987a7.999 7.999 0 01-3.817-.971l-.673-.367-.745.175-1.968.465.48-1.785.217-.8-.414-.72a7.98 7.98 0 01-1.067-3.992C4.023 7.582 7.607 4 12.01 4zM8.477 7.375a.917.917 0 00-.666.313c-.23.248-.875.852-.875 2.08 0 1.228.894 2.415 1.02 2.582.123.166 1.726 2.765 4.263 3.765 2.108.831 2.536.667 2.994.625.458-.04 1.477-.602 1.685-1.185.208-.583.209-1.085.147-1.188-.062-.104-.229-.166-.479-.29-.249-.126-1.476-.728-1.705-.811-.229-.083-.396-.125-.562.125-.166.25-.643.81-.79.976-.145.167-.29.19-.54.065-.25-.126-1.054-.39-2.008-1.24-.742-.662-1.243-1.477-1.389-1.727-.145-.25-.013-.386.112-.51.112-.112.248-.291.373-.437.124-.146.167-.25.25-.416.083-.166.04-.313-.022-.438s-.547-1.357-.77-1.851c-.186-.415-.384-.425-.562-.432-.145-.006-.31-.006-.476-.006z"/></svg></svg>