<svg width="48" height="63" viewBox="0 0 48 63" xmlns="http://www.w3.org/2000/svg">
<path d="M22.5472 6.6636L22.5472 6.6636C21.3001 6.7552 20.1554 7.24908 19.2556 8.05809L19.0612 8.23291L18.8953 8.03084C17.3203 6.11281 14.5819 5.4309 12.2394 6.54102C9.89697 7.65107 8.69102 10.2022 9.17823 12.6357L9.22956 12.8921L8.97111 12.9318C7.77519 13.1159 6.66818 13.6891 5.80755 14.5964L5.80753 14.5964C4.7886 15.6704 4.24931 17.0754 4.28811 18.5547L4.28811 18.5547C4.32687 20.0342 4.93909 21.4086 6.01334 22.4271L22.5472 6.6636ZM22.5472 6.6636C24.0236 6.55502 25.4526 7.02729 26.5729 7.99408C27.6935 8.96099 28.3695 10.3051 28.4776 11.7812C28.5112 12.241 28.4014 13.1651 27.1134 16.4306C26.6478 17.6112 26.1531 18.78 25.7815 19.6383L25.6706 19.8945L25.9374 19.9766C28.4832 20.7599 30.7043 22.5659 31.9318 25.156C33.225 27.8847 35.4602 34.9684 36.8012 41.6352C37.5493 45.3543 37.9251 48.4374 37.9229 50.8032L38.1729 50.8034L37.9229 50.8032C37.9215 52.4017 37.7426 53.6517 37.3935 54.5798C37.0462 55.5031 36.536 56.0954 35.8722 56.41C35.2083 56.7246 34.4269 56.7444 33.4923 56.4285C32.5529 56.111 31.4721 55.4579 30.2341 54.4468L30.0759 54.6404L30.2341 54.4468C28.4016 52.9504 26.2533 50.7073 23.8486 47.7733C19.5378 42.5138 15.4706 36.2982 14.1776 33.5695C12.9502 30.9794 12.9588 28.1167 13.9646 25.6503L14.07 25.3918L13.8016 25.3154C12.9021 25.0595 11.6844 24.7025 10.4755 24.3151L10.4755 24.3151M22.5472 6.6636L10.4755 24.3151M10.4755 24.3151C7.13265 23.2443 6.34778 22.744 6.01337 22.4271L10.4755 24.3151ZM5.96283 18.5108C5.98979 19.5419 6.41736 20.5018 7.16577 21.2114L7.17131 21.2166L7.17715 21.2215C7.31901 21.3405 7.60339 21.484 7.98002 21.6452C8.36843 21.8115 8.88681 22.0096 9.52411 22.2329C10.7993 22.6798 12.5602 23.2315 14.7296 23.8371L14.9006 23.8849L15.002 23.7391C15.3432 23.2488 15.7311 22.7874 16.1624 22.362L16.3317 22.195L16.1733 22.0175C13.2457 18.738 11.0436 16.2105 10.0297 14.6565L9.95562 14.543L9.82011 14.5431C8.76286 14.5439 7.76129 14.9714 7.02292 15.7494L7.0229 15.7494C6.31253 16.4981 5.93577 17.4796 5.96283 18.5108ZM5.96283 18.5108L6.21274 18.5043M5.96283 18.5108L6.21274 18.5043M6.21274 18.5043C6.18743 17.5394 6.5395 16.6221 7.20426 15.9215M6.21274 18.5043C6.23797 19.469 6.63752 20.366 7.33779 21.03L7.20426 15.9215M7.20426 15.9215C7.89547 15.1931 8.83156 14.7938 9.82029 14.7931L7.20426 15.9215ZM25.1443 46.7114C25.2938 46.8939 25.4409 47.0715 25.5866 47.2463L25.7106 47.3951L25.8857 47.3121L29.4661 45.6154C29.8842 45.4173 30.3836 45.5955 30.5817 46.0136C30.7798 46.4316 30.6015 46.9311 30.1835 47.1292L27.1408 48.5711L26.8397 48.7138L27.0608 48.963C29.4 51.5987 31.1848 53.17 32.4858 54.0408C33.1359 54.476 33.6734 54.7417 34.1052 54.8753C34.5287 55.0063 34.8897 55.0218 35.1548 54.8962C35.4521 54.7553 35.6909 54.4077 35.8672 53.9005C36.0477 53.3814 36.1806 52.6452 36.2286 51.6466C36.3248 49.6483 36.083 46.5589 35.159 41.9655C33.8466 35.441 31.6809 28.538 30.418 25.8732C28.4936 21.8127 23.6255 20.0745 19.5651 21.9987C15.5048 23.9228 13.7672 28.7913 15.6915 32.852C16.9542 35.5168 20.9256 41.5641 25.1443 46.7114ZM25.1443 46.7114L25.3377 46.5529M25.1443 46.7114C25.1443 46.7114 25.1443 46.7114 25.1443 46.7114L25.3377 46.5529M25.3377 46.5529C25.4867 46.7348 25.6333 46.9118 25.7786 47.0862L35.0477 54.6703C35.8655 54.2827 36.7577 51.1812 34.914 42.0148C33.6034 35.4996 31.4426 28.619 30.1921 25.9803C28.3268 22.0445 23.6077 20.3596 19.6722 22.2246C15.7367 24.0896 14.0522 28.809 15.9174 32.7449C17.1678 35.3837 21.125 41.4131 25.3377 46.5529ZM19.9492 20.0422L20.15 19.9751L20.1169 19.766C19.8415 18.0264 19.4973 15.8959 19.1446 14.037C18.9684 13.1077 18.7895 12.2437 18.6156 11.5292C18.4432 10.8208 18.2713 10.2402 18.1053 9.88974C17.1929 7.96449 14.8835 7.14181 12.9568 8.05484C11.0303 8.96779 10.2049 11.2761 11.1172 13.2013C11.2784 13.5415 11.6033 14.0204 12.0259 14.58C12.452 15.1443 12.9892 15.8059 13.5863 16.5159C14.7808 17.9361 16.2221 19.5584 17.5093 20.9988L17.6498 21.1561L17.8285 21.044C18.1535 20.8402 18.493 20.653 18.8476 20.4849C19.2098 20.3132 19.5777 20.1664 19.9492 20.0422ZM26.807 11.909L26.8069 11.9015L26.8064 11.8939C26.7316 10.8746 26.2592 9.93601 25.4785 9.26255C24.6974 8.58861 23.6992 8.2587 22.6699 8.3344C21.6002 8.41306 20.6351 8.91773 19.965 9.73565L19.879 9.84059L19.9201 9.96987C20.5053 11.8096 21.1023 15.294 21.7521 19.3834L21.7893 19.6175L22.025 19.5928C22.6192 19.5307 23.2136 19.5234 23.8012 19.5693L23.9782 19.5831L24.0496 19.4205C24.9545 17.3577 25.6427 15.6453 26.1042 14.374C26.3348 13.7387 26.5098 13.2112 26.627 12.8039C26.7406 12.4086 26.8094 12.0962 26.807 11.909Z" stroke="#F5FAFF" stroke-width="0.5"/>
<path d="M21.6324 29.0468C22.0504 28.8487 22.5499 29.0269 22.748 29.445C22.9461 29.863 22.7678 30.3625 22.3498 30.5606L18.8722 32.2086C18.4542 32.4067 17.9547 32.2284 17.7566 31.8104C17.5585 31.3923 17.7368 30.8929 18.1548 30.6947L21.6324 29.0468Z" stroke="#F5FAFF" stroke-width="0.5"/>
<path d="M24.6739 36.3945L30.2384 33.7576C30.6564 33.5595 31.1559 33.7377 31.354 34.1558C31.5521 34.5738 31.3738 35.0733 30.9558 35.2714L25.3913 37.9084C24.9732 38.1065 24.4738 37.9282 24.2757 37.5101C24.0775 37.0921 24.2558 36.5926 24.6739 36.3945Z" stroke="#F5FAFF" stroke-width="0.5"/>
</svg>
