<svg width="37" height="38" viewBox="0 0 37 38" xmlns="http://www.w3.org/2000/svg">
<path d="M32.0709 22.0311L32.0709 22.0311C31.4622 22.2772 31.1682 22.9701 31.4143 23.5788L33.1088 27.7705L33.3396 28.3413L32.7762 28.0929L27.7434 25.8744C27.4424 25.7417 27.0998 25.7396 26.7973 25.8687L26.6992 25.6388L26.7973 25.8687C25.0456 26.6161 23.1697 26.9947 21.2229 26.9947C13.3867 26.9947 8.09569 20.8564 8.09569 15.0807C8.09569 8.48839 14.0081 3.16671 21.2229 3.16671C28.4376 3.16671 34.3501 8.48839 34.3501 15.0807C34.3501 15.596 34.3022 16.2092 34.2192 16.7659L33.9719 16.7291L34.2192 16.7659C34.1223 17.4153 34.5702 18.0202 35.2196 18.1171L35.2197 18.1171C35.869 18.2142 36.4739 17.7662 36.5708 17.1167C36.672 16.4381 36.7276 15.7142 36.7276 15.0807C36.7276 11.2457 35.1045 7.64422 32.1484 4.9387C29.2266 2.26451 25.3475 0.789124 21.2229 0.789124C17.0982 0.789124 13.2192 2.26451 10.2974 4.93863C7.65548 7.3566 6.07975 10.4901 5.77407 13.8652L5.76323 13.9848L5.66312 14.0511C2.35022 16.245 0.394579 19.7538 0.394579 23.5256C0.394579 25.8833 1.13686 28.1202 2.55246 30.0477L2.63501 30.1601L2.58274 30.2893L0.481245 35.4878L0.249507 35.3942L0.481239 35.4879C0.299895 35.9364 0.408487 36.4501 0.755906 36.7869L0.755947 36.7869C0.982278 37.0064 1.28047 37.1222 1.58357 37.1223L32.0709 22.0311ZM32.0709 22.0311C32.6795 21.785 33.3725 22.0791 33.6186 22.6877L36.641 30.1643C36.8223 30.6129 36.7137 31.1266 36.3663 31.4634L36.5403 31.6429L36.3663 31.4634C36.1399 31.6828 35.8416 31.7987 35.5385 31.7987C35.3768 31.7987 35.2137 31.7657 35.0592 31.6977L27.3401 28.2949L27.246 28.2535L27.15 28.2902C26.1957 28.655 25.2124 28.9279 24.2062 29.1086L24.0953 29.1285L24.0368 29.2248C23.0129 30.9088 21.5511 32.3368 19.7715 33.3773C17.7849 34.5387 15.4894 35.1602 13.1264 35.1781L13.1182 35.1782L13.11 35.1788L13.1059 35.1791C13.0699 35.1817 13.0456 35.1835 13.0217 35.1835C11.3877 35.1835 9.80608 34.9013 8.31032 34.3446L8.21517 34.3091L8.12226 34.3501L2.06287 37.0212L2.06283 37.0212M32.0709 22.0311L2.06283 37.0212M2.06283 37.0212C1.90868 37.0892 1.74556 37.1222 1.58366 37.1223L2.06283 37.0212ZM12.9623 32.8052L12.9623 32.8054L12.9737 32.805C13.0088 32.8036 13.0088 32.8028 13.013 32.8024C13.0146 32.8023 13.0168 32.8022 13.0218 32.8022C15.9199 32.8022 18.6613 31.6705 20.5808 29.7811L20.9882 29.3801L20.4172 29.3532C16.4895 29.1686 12.8564 27.6359 10.1111 24.9938C7.90464 22.8702 6.44463 20.1693 5.92759 17.3508L5.84291 16.8892L5.50707 17.217C3.76994 18.9127 2.77216 21.1544 2.77216 23.5256C2.77216 25.5966 3.51117 27.5555 4.90304 29.1884L5.0933 29.0263L4.90304 29.1884C5.19038 29.5255 5.26652 29.9945 5.10051 30.4052L4.01357 33.0939L3.78283 33.6647L4.34619 33.4164L7.71563 31.9311L7.71565 31.9311C8.01667 31.7984 8.35919 31.7963 8.6616 31.9254L8.66167 31.9255C10.0137 32.5023 11.4607 32.7975 12.9623 32.8052Z" stroke-width="0.5"/>
<path d="M21.1497 16.5816C21.9444 16.5816 22.5885 15.9375 22.5885 15.1428C22.5885 14.3482 21.9444 13.704 21.1497 13.704C20.3551 13.704 19.7109 14.3482 19.7109 15.1428C19.7109 15.9375 20.3551 16.5816 21.1497 16.5816Z"/>
<path d="M26.9075 16.5816C27.7022 16.5816 28.3463 15.9375 28.3463 15.1428C28.3463 14.3482 27.7022 13.704 26.9075 13.704C26.1129 13.704 25.4688 14.3482 25.4688 15.1428C25.4688 15.9375 26.1129 16.5816 26.9075 16.5816Z"/>
<path d="M15.3958 16.5816C16.1904 16.5816 16.8346 15.9375 16.8346 15.1428C16.8346 14.3482 16.1904 13.704 15.3958 13.704C14.6012 13.704 13.957 14.3482 13.957 15.1428C13.957 15.9375 14.6012 16.5816 15.3958 16.5816Z"/>
</svg>
