<svg xmlns="http://www.w3.org/2000/svg"  viewBox="0 0 48 48" width="48px" height="48px"><path d="M 22.789062 3.9980469 C 19.431129 4.0198532 12.621814 4.3546499 8.2167969 8.3183594 A 1.50015 1.50015 0 0 0 8.1542969 8.3769531 C 5.2753011 11.283173 4 15.449195 4 21 L 4 23.998047 C 4 29.548852 5.2834829 33.723509 8.21875 36.683594 A 1.50015 1.50015 0 0 0 8.28125 36.744141 C 9.5422176 37.876986 11.173701 38.710836 13 39.376953 L 13 42.962891 C 13 44.20172 13.771964 45.321341 14.927734 45.763672 C 15.276327 45.897133 15.642229 45.962891 16 45.962891 C 16.83724 45.962891 17.654106 45.610498 18.232422 44.966797 C 18.250882 44.946907 20.532896 42.478851 21.914062 40.955078 C 22.717613 40.980052 23.541398 41 23.998047 41 C 26.572047 41 34.747997 41.211368 39.783203 36.681641 A 1.50015 1.50015 0 0 0 39.845703 36.621094 C 42.724699 33.714876 44 29.548852 44 23.998047 L 43.998047 21 C 43.998047 15.448236 42.71615 11.273874 39.78125 8.3164062 A 1.50015 1.50015 0 0 0 39.71875 8.2578125 C 34.737651 3.7795632 26.574 3.9980469 24 3.9980469 C 23.67825 3.9980469 23.268767 3.9949317 22.789062 3.9980469 z M 24 6.9980469 C 26.56798 6.9980469 34.035256 7.2228177 37.681641 10.470703 C 39.923952 12.752544 40.998047 15.919132 40.998047 21 L 41 24 C 40.999672 29.077845 39.918638 32.252876 37.746094 34.46875 C 34.026505 37.784964 26.566115 38 23.998047 38 C 23.383047 38 22.459719 38.000217 21.34375 37.943359 A 1.50015 1.50015 0 0 0 20.148438 38.441406 C 18.965971 39.764363 16.017578 42.941406 16.017578 42.941406 A 1.50015 1.50015 0 0 0 16 42.960938 L 16 38.369141 A 1.50015 1.50015 0 0 0 14.929688 36.931641 C 12.950858 36.338726 11.421763 35.513648 10.320312 34.533203 C 8.0750521 32.247883 7 29.079366 7 23.998047 L 7 21 C 7 15.922291 8.0803563 12.747377 10.251953 10.53125 C 13.970043 7.2142339 21.431655 6.9980469 24 6.9980469 z M 24 11 C 23.448 11 23 11.448 23 12 C 23 12.552 23.448 13 24 13 C 28.962 13 33 17.038 33 22 L 33 23 C 33 23.552 33.448 24 34 24 C 34.552 24 35 23.552 35 23 L 35 22 C 35 15.935 30.065 11 24 11 z M 16.089844 12 C 15.450844 11.999 14.612922 12.315281 14.044922 12.738281 C 13.190922 13.375281 12.297594 14.242266 12.058594 15.322266 C 12.026594 15.469266 12.007953 15.617625 12.001953 15.765625 C 11.955953 16.890625 12.396047 18.033 12.873047 19 C 13.996047 21.279 15.482609 23.485078 17.099609 25.455078 C 17.616609 26.085078 18.180672 26.670328 18.763672 27.236328 C 19.329672 27.818328 19.914922 28.382391 20.544922 28.900391 C 22.514922 30.517391 24.721 32.003953 27 33.126953 C 27.958 33.598953 29.085219 34.032 30.199219 34 C 30.358219 33.995 30.518734 33.976406 30.677734 33.941406 C 31.757734 33.703406 32.624719 32.809078 33.261719 31.955078 C 33.684719 31.387078 34.001 30.550156 34 29.910156 C 33.999 29.532156 33.827172 29.170516 33.451172 28.853516 C 32.340172 27.917516 31.826969 27.635844 30.292969 26.714844 C 29.653969 26.331844 28.680922 26 28.169922 26 C 27.820922 26 27.402484 26.267437 27.146484 26.523438 C 26.490484 27.179437 26.275 28 25.125 28 C 24 28 22.035 26.855 20.625 25.375 C 19.145 23.965 18 22 18 20.875 C 18 19.725 18.806891 19.494891 19.462891 18.837891 C 19.718891 18.582891 20 18.165406 20 17.816406 C 20 17.305406 19.668156 16.346031 19.285156 15.707031 C 18.364156 14.172031 18.083484 13.658828 17.146484 12.548828 C 16.829484 12.172828 16.467844 12.001 16.089844 12 z M 24.427734 14.017578 C 23.884734 13.987578 23.405953 14.410891 23.376953 14.962891 C 23.347953 15.513891 23.770266 15.984672 24.322266 16.013672 C 27.506266 16.181672 30 18.812 30 22 C 30 22.552 30.448 23 31 23 C 31.552 23 32 22.552 32 22 C 32 17.748 28.674734 14.241578 24.427734 14.017578 z M 24.853516 17.152344 C 24.4675 17.209859 24.13475 17.490125 24.03125 17.890625 C 23.89325 18.425625 24.215 18.970375 24.75 19.109375 C 25.797 19.379375 26.616625 20.200953 26.890625 21.251953 C 27.007625 21.701953 27.413422 22 27.857422 22 C 27.940422 22 28.026328 21.988797 28.111328 21.966797 C 28.645328 21.826797 28.965172 21.281094 28.826172 20.746094 C 28.369172 18.994094 26.999953 17.626828 25.251953 17.173828 C 25.117703 17.139578 24.982188 17.133172 24.853516 17.152344 z"/></svg>